Coordinates
version=1
nRows=4
nColumns=63
inDegrees=yes

Units are S.I. units (second, meters, Newtons, ...)
If the header above contains a line with 'inDegrees', this indicates whether rotational values are in degrees (yes) or radians (no).

endheader
time	pelvis_tilt	pelvis_list	pelvis_rotation	pelvis_tx	pelvis_ty	pelvis_tz	hip_flexion_r	hip_adduction_r	hip_rotation_r	knee_angle_r	knee_angle_r_beta	ankle_angle_r	subtalar_angle_r	mtp_angle_r	hip_flexion_l	hip_adduction_l	hip_rotation_l	knee_angle_l	knee_angle_l_beta	ankle_angle_l	subtalar_angle_l	mtp_angle_l	L5_S1_Flex_Ext	L5_S1_Lat_Bending	L5_S1_axial_rotation	L4_L5_Flex_Ext	L4_L5_Lat_Bending	L4_L5_axial_rotation	L3_L4_Flex_Ext	L3_L4_Lat_Bending	L3_L4_axial_rotation	L2_L3_Flex_Ext	L2_L3_Lat_Bending	L2_L3_axial_rotation	L1_L2_Flex_Ext	L1_L2_Lat_Bending	L1_L2_axial_rotation	L1_T12_Flex_Ext	L1_T12_Lat_Bending	L1_T12_axial_rotation	Abs_r3	Abs_r2	Abs_r1	Abs_t1	Abs_t2	neck_flexion	neck_bending	neck_rotation	arm_flex_r	arm_add_r	arm_rot_r	elbow_flex_r	pro_sup_r	wrist_flex_r	wrist_dev_r	arm_flex_l	arm_add_l	arm_rot_l	elbow_flex_l	pro_sup_l	wrist_flex_l	wrist_dev_l
      0.00000000	     10.63297492	     -4.30188030	    101.08213144	      0.30548858	      1.07652475	      0.33905016	     -4.22792491	      6.84874126	     -4.85942399	      3.66265925	      0.06392546	     28.11622928	      1.82193139	      0.00000000	     -1.01146883	     -5.14972257	      3.89163395	      9.06784553	      0.15826376	     29.37005305	      1.75467741	      0.00000000	      0.13808169	      0.68305800	     -1.94313239	      0.25643150	      0.90846714	     -2.06457816	      0.22685440	      1.66078722	     -2.06457816	      0.15781356	      1.66078722	     -1.70024084	      0.12822265	      1.39289187	     -1.57879507	      0.07889988	      1.05805684	     -1.45734929	      0.98630367	      7.72688871	    -10.80711940	      0.00000000	      0.00000000	     24.95588114	      1.31684630	      5.22843649	     14.18051487	    -13.43293811	     76.64752288	     53.15826505	      4.01852948	     -1.23703542	     13.76389160	     14.68511252	     -5.76556355	     72.01116532	     48.29800169	     55.13755001	     -0.90277460	     -1.31539699
      0.01785714	     10.54941716	     -4.28764098	    101.16830836	      0.30573059	      1.07664791	      0.33860187	     -4.36151173	      6.82790019	     -4.90687940	      3.76570712	      0.06572399	     27.95982826	      1.89995955	      0.00000000	     -1.11436687	     -5.12660579	      3.69956012	      9.25449957	      0.16152149	     28.64517078	      1.73335607	      0.00000000	      0.13989659	      0.66452624	     -1.99294641	      0.25980196	      0.88381990	     -2.11750556	      0.22983611	      1.61572911	     -2.11750556	      0.15988782	      1.61572911	     -1.74382811	      0.12990798	      1.35510191	     -1.61926896	      0.07993691	      1.02935115	     -1.49470981	      0.99926737	      7.51725376	    -11.08417005	      0.00000000	      0.00000000	     24.94390796	      1.40532380	      5.15359609	     14.14889499	    -13.47719961	     76.50574543	     53.22870975	      3.94625776	     -1.23746916	     13.68640252	     14.48186181	     -5.78864295	     72.05843049	     47.96608004	     55.06715462	     -0.95972389	     -1.15919619
      0.03571429	     10.30108796	     -4.23752994	    101.55669881	      0.30578102	      1.07681289	      0.33814188	     -4.55901250	      6.67028929	     -5.69681850	      3.81198126	      0.06653162	     27.96034063	      2.39777014	      0.00000000	     -1.24221319	     -4.96613744	      3.82146615	      9.36008885	      0.16336437	     28.01907030	      1.97630958	      0.00000000	      0.13818302	      0.61862324	     -2.06550584	      0.25661969	      0.82276891	     -2.19459995	      0.22702089	      1.50412055	     -2.19459995	      0.15792938	      1.50412055	     -1.80731761	      0.12831675	      1.26149652	     -1.67822349	      0.07895778	      0.95824740	     -1.54912938	      0.98702751	      6.99798986	    -11.48772381	      0.00000000	      0.00000000	     24.85085110	      1.83486708	      4.71461726	     13.80164548	    -13.23256511	     75.84116468	     53.09577396	      3.56201619	     -1.34919177	     13.18723077	     14.31700484	     -5.98141140	     71.96437117	     47.93866795	     54.59639760	     -0.91733919	     -0.68621887
      0.05357143	     10.32860733	     -4.23319090	    101.71982909	      0.30574639	      1.07676437	      0.33793443	     -4.54239431	      6.66779194	     -7.45796185	      4.03338940	      0.07039592	     28.22771009	      4.52048479	      0.00000000	     -1.23087489	     -5.06784342	      3.36785542	      9.55954878	      0.16684560	     27.72153824	      2.64401894	      0.00000000	      0.14327590	      0.61647155	     -2.09435382	      0.26607768	      0.81990716	     -2.22525093	      0.23538798	      1.49888892	     -2.22525093	      0.16375003	      1.49888892	     -1.83255959	      0.13304600	      1.25710878	     -1.70166248	      0.08186785	      0.95491443	     -1.57076537	      1.02340544	      6.97364944	    -11.64816764	      0.00000000	      0.00000000	     24.83217958	      1.83576925	      4.50431793	     13.80374426	    -13.25349966	     75.78836704	     53.04336874	      3.41169962	     -0.67734654	     13.06656482	     14.39866616	     -6.08734410	     72.26790173	     48.01676675	     54.08851388	     -0.99322149	     -0.73997800
